<svg xmlns="http://www.w3.org/2000/svg" version="1.1" xmlns:xlink="http://www.w3.org/1999/xlink" xmlns:svgjs="http://svgjs.dev/svgjs" viewBox="0 0 800 800"><defs><linearGradient x1="50%" y1="0%" x2="50%" y2="100%" id="ffflurry-grad" gradientTransform="rotate(270)"><stop stop-color="hsl(231, 11%, 15%)" stop-opacity="1" offset="0%"></stop><stop stop-color="hsl(0, 0%, 0%)" stop-opacity="1" offset="45%"></stop><stop stop-color="hsl(167, 52%, 78%)" stop-opacity="1" offset="100%"></stop></linearGradient></defs><rect width="100%" height="100%" fill="hsl(231, 11%, 15%)"></rect><g fill="url(#ffflurry-grad)"><rect width="67" height="1" x="202.5" y="335.5" rx="0.5" transform="rotate(213, 236, 336)"></rect><rect width="65" height="1" x="329.5" y="306.5" rx="0.5" transform="rotate(213, 362, 307)"></rect><rect width="37" height="1" x="489.5" y="36.5" rx="0.5" transform="rotate(213, 508, 37)"></rect><rect width="63" height="1" x="159.5" y="593.5" rx="0.5" transform="rotate(213, 191, 594)"></rect><rect width="62" height="1" x="703" y="61.5" rx="0.5" transform="rotate(213, 734, 62)"></rect><rect width="48" height="1" x="545" y="200.5" rx="0.5" transform="rotate(213, 569, 201)"></rect><rect width="55" height="1" x="716.5" y="712.5" rx="0.5" transform="rotate(213, 744, 713)"></rect><rect width="70" height="1" x="447" y="590.5" rx="0.5" transform="rotate(213, 482, 591)"></rect><rect width="64" height="1" x="156" y="464.5" rx="0.5" transform="rotate(213, 188, 465)"></rect><rect width="58" height="1" x="393" y="203.5" rx="0.5" transform="rotate(213, 422, 204)"></rect><rect width="69" height="1" x="249.5" y="79.5" rx="0.5" transform="rotate(213, 284, 80)"></rect><rect width="46" height="1" x="477" y="124.5" rx="0.5" transform="rotate(213, 500, 125)"></rect><rect width="62" height="1" x="466" y="736.5" rx="0.5" transform="rotate(213, 497, 737)"></rect><rect width="66" height="1" x="618" y="322.5" rx="0.5" transform="rotate(213, 651, 323)"></rect><rect width="48" height="1" x="633" y="164.5" rx="0.5" transform="rotate(213, 657, 165)"></rect><rect width="48" height="1" x="727" y="218.5" rx="0.5" transform="rotate(213, 751, 219)"></rect><rect width="68" height="1" x="169" y="178.5" rx="0.5" transform="rotate(213, 203, 179)"></rect><rect width="74" height="1" x="43" y="88.5" rx="0.5" transform="rotate(213, 80, 89)"></rect><rect width="63" height="1" x="26.5" y="467.5" rx="0.5" transform="rotate(213, 58, 468)"></rect><rect width="65" height="1" x="479.5" y="320.5" rx="0.5" transform="rotate(213, 512, 321)"></rect><rect width="66" height="1" x="443" y="448.5" rx="0.5" transform="rotate(213, 476, 449)"></rect><rect width="54" height="1" x="582" y="54.5" rx="0.5" transform="rotate(213, 609, 55)"></rect><rect width="62" height="1" x="592" y="697.5" rx="0.5" transform="rotate(213, 623, 698)"></rect><rect width="59" height="1" x="140.5" y="739.5" rx="0.5" transform="rotate(213, 170, 740)"></rect><rect width="63" height="1" x="577.5" y="475.5" rx="0.5" transform="rotate(213, 609, 476)"></rect><rect width="84" height="1" x="37" y="293.5" rx="0.5" transform="rotate(213, 79, 294)"></rect><rect width="75" height="1" x="298.5" y="491.5" rx="0.5" transform="rotate(213, 336, 492)"></rect><rect width="53" height="1" x="719.5" y="414.5" rx="0.5" transform="rotate(213, 746, 415)"></rect><rect width="86" height="1" x="294" y="697.5" rx="0.5" transform="rotate(213, 337, 698)"></rect><rect width="63" height="1" x="19.5" y="670.5" rx="0.5" transform="rotate(213, 51, 671)"></rect><rect width="59" height="1" x="372.5" y="63.5" rx="0.5" transform="rotate(213, 402, 64)"></rect><rect width="67" height="1" x="674.5" y="565.5" rx="0.5" transform="rotate(213, 708, 566)"></rect></g></svg>